# xmcd
#
# Track frame offsets: 
#        150
#        20598
#        39926
#        55809
#        68217
#        85096
#        106940
#        119339
#        133604
#        148065
#        160762
#        176734
#        193693
#        217301
#        230184
#        256943
#
# Disc length: 4440 seconds
#
# Revision: 4
# Processed by: cddbd v1.5.2PL0 Copyright (c) Steve Scherf et al.
# Submitted via: ExactAudioCopy v1.0b3
#
DISCID=ea115610
DTITLE=Martinho Da Vila - Brasilatinidade
DYEAR=2005
DGENRE=Brasil-Samba
TTITLE0=Quando Essa Onda Passar
TTITLE1=Sob A Luz Do Candeeiro
TTITLE2=Tempero Do Prazer
TTITLE3=Fetiche
TTITLE4=Dar E Receber
TTITLE5=Quem Tá Com Deus Não Tem Medo
TTITLE6=Roda De Samba No Céu
TTITLE7=Uma Casa Nos Aresç La Casa En El Aire
TTITLE8=Suco De Maracujá
TTITLE9=Um Dia Tu Verás -  Un Jour Tu Verras
TTITLE10=Mirra, Ouro, Incenso
TTITLE11=Eu Não Me Canso De Dizer
TTITLE12=Um Beijo, Adeus - Prima Dammi Un Bacio
TTITLE13=Dentre Centenas De Mastros
TTITLE14=Fetiço Da Vila
TTITLE15=Faixa de Dados
EXTD=
EXTT0=
EXTT1=
EXTT2=
EXTT3=
EXTT4=
EXTT5=
EXTT6=
EXTT7=
EXTT8=
EXTT9=
EXTT10=
EXTT11=
EXTT12=
EXTT13=
EXTT14=
EXTT15=
PLAYORDER=
